PathFileType	4	(X/Y/Z)
DataRate	CameraRate	NumFrames	NumMarkers	Units	OrigDataRate	OrigDataStartFrame	OrigNumFrames	
	120.0	120.0	9	39	mm	120.0	53	104
Frame#	Time	midhip	hip_r	hip_l	knee_r	knee_l	ankle_r	ankle_l	midasis	asis_r	asis_l	psis_r	psis_l	epicondLat_r	epicondLat_l	epicondMed_r	epicondMed_l	malleolusLat_r	malleolusLat_l	malleolusMedv_r	malleolusMedv_l	heel_r	heel_l	sternalnotch	xyphoidprocess	neck	subclavicle_r	subclavicle_l	toe_r	toe_l	thighwand_r	thighwand_l	upperleg1_r	upperleg1_l	upperleg2_r	upperleg2_l	shankwand_r	shankwand_l	lowerleg1_r	lowerleg1_l
	X1	Y1	Z1	X2	Y2	Z2	X3	Y3	Z3	X4	Y4	Z4	X5	Y5	Z5	X6	Y6	Z6	X7	Y7	Z7	X8	Y8	Z8	X9	Y9	Z9	X10	Y10	Z10	X11	Y11	Z11	X12	Y12	Z12	X13	Y13	Z13	X14	Y14	Z14	X15	Y15	Z15	X16	Y16	Z16	X17	Y17	Z17	X18	Y18	Z18	X19	Y19	Z19	X20	Y20	Z20	X21	Y21	Z21	X22	Y22	Z22	X23	Y23	Z23	X24	Y24	Z24	X25	Y25	Z25	X26	Y26	Z26	X27	Y27	Z27	X28	Y28	Z28	X29	Y29	Z29	X30	Y30	Z30	X31	Y31	Z31	X32	Y32	Z32	X33	Y33	Z33	X34	Y34	Z34	X35	Y35	Z35	X36	Y36	Z36	X37	Y37	Z37	X38	Y38	Z38	X39	Y39	Z39

	53	0.44167	1479.942	905.676	-247.395	1466.115	879.721	-178.316	1473.209	883.551	-328.529	1443.399	470.233	-135.315	1433.312	460.784	-353.478	1406.987	69.264	-130.268	1383.836	71.023	-363.326	1565.429	960.288	-246.895	1559.805	957.251	-127.798	1571.054	963.324	-365.993	1380.317	1017.706	-221.831	1389.370	1015.784	-306.923	1452.499	475.980	-75.780	1441.460	463.519	-412.859	1427.043	477.859	-185.851	1427.825	465.527	-303.616	1391.473	71.164	-91.285	1365.114	74.318	-399.652	1415.856	83.125	-157.811	1390.805	82.928	-338.206	1342.791	42.558	-143.958	1317.560	42.881	-352.173	1485.068	1369.925	-236.195	1567.930	1206.758	-247.169	1372.592	1435.975	-240.580	1495.056	1358.665	-183.639	1509.703	1365.523	-290.873	1525.635	39.644	-99.507	1500.606	41.031	-401.723	1506.390	591.416	-9.768	1595.985	552.902	-341.294	1522.210	651.436	-83.174	1535.865	618.259	-381.858	1513.573	563.990	-99.152	1510.363	536.181	-385.995	1418.224	205.075	-5.965	1406.477	211.716	-479.698	1406.113	171.843	-78.890	1385.954	173.864	-410.789
	54	0.45000	1479.859	905.756	-247.407	1466.061	879.742	-178.356	1473.200	883.547	-328.567	1443.417	470.241	-135.380	1433.436	460.782	-353.478	1407.036	69.250	-130.253	1383.878	71.015	-363.341	1565.384	960.312	-246.918	1559.725	957.296	-127.849	1571.043	963.329	-365.986	1380.169	1017.749	-221.992	1389.251	1015.783	-306.999	1452.494	475.987	-75.841	1441.539	463.519	-412.865	1426.936	477.786	-185.760	1427.831	465.537	-303.662	1391.509	71.157	-91.276	1365.128	74.318	-399.653	1415.887	82.990	-157.865	1390.798	82.995	-338.222	1342.777	42.546	-143.950	1317.572	42.872	-352.184	1485.011	1369.967	-236.337	1567.819	1206.774	-247.327	1372.571	1436.024	-240.536	1494.930	1358.665	-183.763	1509.711	1365.595	-291.003	1525.629	39.632	-99.549	1500.606	41.024	-401.711	1506.398	591.411	-9.806	1595.957	552.896	-341.258	1522.089	651.525	-83.241	1535.837	618.343	-381.863	1513.495	563.960	-99.202	1510.364	536.205	-386.008	1418.220	205.077	-5.975	1406.494	211.703	-479.698	1405.996	171.876	-78.857	1386.004	173.824	-410.780
	55	0.45833	1479.715	905.784	-247.454	1466.009	879.769	-178.390	1473.195	883.542	-328.600	1443.433	470.257	-135.436	1433.529	460.777	-353.473	1407.072	69.256	-130.236	1383.906	71.002	-363.353	1565.336	960.346	-246.939	1559.641	957.356	-127.896	1571.031	963.336	-365.982	1380.017	1017.781	-222.158	1389.119	1015.787	-307.074	1452.488	476.003	-75.894	1441.594	463.514	-412.865	1426.905	477.761	-185.716	1427.953	465.666	-303.506	1391.531	71.170	-91.264	1365.133	74.312	-399.653	1415.925	82.927	-157.862	1390.847	83.083	-338.269	1342.762	42.529	-143.941	1317.579	42.855	-352.187	1484.918	1369.940	-236.340	1567.502	1206.631	-247.294	1372.545	1436.167	-240.566	1494.817	1358.633	-183.738	1509.617	1365.524	-291.030	1525.646	39.604	-99.605	1500.597	41.030	-401.705	1506.395	591.415	-9.853	1595.963	552.896	-341.258	1522.013	651.630	-83.286	1535.859	618.424	-381.924	1513.457	563.967	-99.238	1510.435	536.279	-385.958	1418.212	205.080	-5.982	1406.510	211.693	-479.705	1405.837	171.960	-78.842	1385.865	173.786	-410.809
	56	0.46667	1479.515	905.751	-247.534	1465.965	879.794	-178.412	1473.191	883.533	-328.621	1443.444	470.280	-135.481	1433.580	460.763	-353.468	1407.087	69.282	-130.218	1383.916	70.989	-363.361	1565.287	960.383	-246.953	1559.561	957.420	-127.930	1571.013	963.345	-365.976	1379.867	1017.796	-222.326	1388.980	1015.789	-307.145	1452.481	476.026	-75.936	1441.620	463.501	-412.864	1427.058	477.686	-185.702	1428.044	465.851	-303.369	1391.535	71.204	-91.251	1365.129	74.304	-399.652	1415.899	82.944	-157.833	1390.860	83.165	-338.346	1342.750	42.512	-143.933	1317.580	42.835	-352.181	1484.825	1369.897	-236.401	1567.183	1206.460	-247.138	1372.477	1436.305	-240.650	1494.672	1358.629	-183.646	1509.556	1365.392	-291.214	1525.684	39.565	-99.662	1500.582	41.049	-401.703	1506.377	591.425	-9.905	1595.984	552.897	-341.283	1522.016	651.641	-83.313	1535.994	618.464	-382.013	1513.514	563.998	-99.213	1510.549	536.313	-385.923	1418.203	205.083	-5.986	1406.526	211.684	-479.717	1405.942	171.972	-78.907	1385.801	173.865	-410.903
	57	0.47500	1479.187	905.589	-247.644	1465.932	879.810	-178.422	1473.187	883.519	-328.630	1443.450	470.307	-135.514	1433.587	460.741	-353.469	1407.079	69.326	-130.201	1383.913	70.980	-363.363	1565.240	960.419	-246.960	1559.491	957.481	-127.952	1570.989	963.357	-365.968	1379.718	1017.789	-222.499	1388.843	1015.787	-307.204	1452.471	476.051	-75.967	1441.617	463.479	-412.867	1427.167	477.719	-185.868	1428.222	465.738	-303.624	1391.516	71.254	-91.238	1365.120	74.296	-399.651	1415.852	82.992	-157.814	1390.825	83.310	-338.409	1342.744	42.501	-143.928	1317.578	42.818	-352.172	1484.808	1369.845	-236.497	1567.082	1206.351	-247.013	1372.483	1436.294	-240.732	1494.648	1358.644	-183.551	1509.537	1365.252	-291.492	1525.737	39.523	-99.701	1500.563	41.076	-401.705	1506.345	591.434	-9.965	1595.999	552.895	-341.315	1522.000	651.570	-83.299	1536.162	618.521	-382.091	1513.544	564.051	-99.246	1510.777	536.222	-386.043	1418.194	205.082	-5.991	1406.543	211.673	-479.733	1406.150	171.977	-78.934	1385.945	173.896	-410.910
	58	0.48333	1478.813	905.373	-247.768	1465.915	879.817	-178.423	1473.189	883.500	-328.631	1443.449	470.333	-135.539	1433.560	460.712	-353.482	1407.048	69.381	-130.187	1383.903	70.979	-363.362	1565.199	960.455	-246.964	1559.436	957.537	-127.965	1570.962	963.372	-365.962	1379.569	1017.763	-222.678	1388.710	1015.780	-307.257	1452.457	476.075	-75.990	1441.593	463.451	-412.879	1426.672	478.063	-186.146	1428.532	465.351	-304.123	1391.478	71.314	-91.228	1365.111	74.293	-399.651	1415.881	82.972	-157.816	1390.700	83.422	-338.385	1342.745	42.498	-143.929	1317.574	42.811	-352.163	1484.763	1369.752	-236.487	1566.967	1206.206	-246.734	1372.506	1436.201	-240.763	1494.748	1358.711	-183.463	1509.337	1364.985	-291.612	1525.792	39.483	-99.710	1500.544	41.106	-401.709	1506.295	591.441	-10.032	1595.992	552.887	-341.338	1521.916	651.502	-83.247	1536.250	618.535	-382.121	1513.301	564.025	-99.417	1511.107	536.162	-386.237	1418.187	205.076	-6.000	1406.560	211.656	-479.749	1406.216	172.037	-78.932	1386.158	173.756	-410.780
	59	0.49167	1478.526	905.225	-247.889	1465.917	879.816	-178.424	1473.204	883.478	-328.632	1443.439	470.354	-135.561	1433.513	460.682	-353.507	1407.001	69.436	-130.178	1383.893	70.990	-363.361	1565.169	960.489	-246.968	1559.397	957.588	-127.973	1570.942	963.389	-365.963	1379.415	1017.726	-222.865	1388.584	1015.769	-307.317	1452.439	476.094	-76.010	1441.555	463.422	-412.902	1426.252	478.300	-186.312	1428.479	465.179	-304.451	1391.426	71.374	-91.221	1365.107	74.300	-399.653	1415.976	82.900	-157.810	1390.591	83.405	-338.295	1342.754	42.502	-143.935	1317.568	42.820	-352.157	1484.696	1369.676	-236.501	1566.795	1206.066	-246.569	1372.447	1436.204	-240.826	1494.750	1358.724	-183.509	1509.190	1364.796	-291.612	1525.838	39.449	-99.677	1500.530	41.134	-401.715	1506.230	591.443	-10.109	1595.959	552.877	-341.341	1521.847	651.475	-83.226	1536.249	618.523	-382.102	1513.085	563.966	-99.539	1511.128	536.113	-386.365	1418.183	205.062	-6.016	1406.577	211.635	-479.761	1406.171	172.030	-78.991	1386.134	173.659	-410.705
	60	0.50000	1478.527	905.320	-247.988	1465.931	879.810	-178.434	1473.234	883.453	-328.642	1443.418	470.371	-135.589	1433.461	460.658	-353.538	1406.952	69.480	-130.175	1383.890	71.011	-363.362	1565.154	960.520	-246.978	1559.368	957.634	-127.982	1570.939	963.406	-365.974	1379.260	1017.686	-223.054	1388.472	1015.759	-307.404	1452.413	476.108	-76.037	1441.513	463.398	-412.932	1426.573	478.213	-186.488	1428.273	465.186	-304.572	1391.374	71.423	-91.220	1365.109	74.315	-399.658	1416.044	82.845	-157.781	1390.525	83.244	-338.220	1342.766	42.511	-143.945	1317.559	42.842	-352.151	1484.664	1369.701	-236.640	1566.831	1206.132	-246.818	1372.339	1436.231	-241.027	1494.638	1358.675	-183.680	1509.244	1364.909	-291.686	1525.868	39.428	-99.608	1500.520	41.155	-401.722	1506.150	591.441	-10.197	1595.906	552.866	-341.323	1521.858	651.424	-83.250	1536.237	618.544	-382.093	1513.190	563.984	-99.554	1511.000	536.016	-386.416	1418.182	205.042	-6.040	1406.594	211.611	-479.767	1406.106	171.976	-79.024	1385.937	173.612	-410.768
	61	0.50833	1478.593	905.466	-248.084	1465.949	879.804	-178.463	1473.280	883.428	-328.670	1443.387	470.385	-135.627	1433.418	460.646	-353.566	1406.911	69.503	-130.181	1383.894	71.037	-363.367	1565.151	960.546	-246.999	1559.343	957.675	-127.998	1570.959	963.417	-366.001	1379.110	1017.653	-223.235	1388.383	1015.751	-307.533	1452.380	476.120	-76.074	1441.476	463.383	-412.959	1426.858	478.108	-186.595	1428.231	465.104	-304.689	1391.331	71.450	-91.226	1365.117	74.337	-399.665	1416.036	82.846	-157.781	1390.466	83.147	-338.190	1342.780	42.520	-143.958	1317.545	42.874	-352.142	1484.645	1369.755	-236.721	1567.006	1206.294	-247.078	1372.238	1436.181	-241.164	1494.584	1358.658	-183.760	1509.282	1365.077	-291.761	1525.882	39.425	-99.514	1500.518	41.168	-401.730	1506.058	591.440	-10.293	1595.847	552.855	-341.288	1521.843	651.467	-83.289	1536.229	618.562	-382.093	1513.264	563.970	-99.568	1510.993	535.916	-386.453	1418.182	205.019	-6.072	1406.613	211.589	-479.767	1406.249	171.962	-79.114	1385.994	173.605	-410.733
